<mxfile host="drawio-plugin" modified="2021-07-06T14:44:10.123Z" agent="5.0 (Macintosh; Intel Mac OS X 10_15_7) AppleWebKit/537.36 (KHTML, like Gecko) Chrome/89.0.4389.90 Safari/537.36" etag="RkUgcLs4HnRx1YrY4IIE" version="14.7.4" type="embed"><diagram id="a1mc1CKWr7BlJ5Wm-uro" name="Page-1"><mxGraphModel dx="1553" dy="1151" grid="1" gridSize="10" guides="1" tooltips="1" connect="1" arrows="1" fold="1" page="1" pageScale="1" pageWidth="1169" pageHeight="827" math="0" shadow="0"><root><mxCell id="0"/><mxCell id="1" parent="0"/><mxCell id="QjsJls5_l255g50hNccU-1" value="" style="edgeStyle=elbowEdgeStyle;elbow=vertical;endArrow=classic;html=1;strokeWidth=1;exitX=0.5;exitY=1;exitDx=0;exitDy=0;entryX=0.5;entryY=0;entryDx=0;entryDy=0;" parent="1" source="QjsJls5_l255g50hNccU-9" target="QjsJls5_l255g50hNccU-5" edge="1"><mxGeometry width="50" height="50" relative="1" as="geometry"><mxPoint x="850" y="-116" as="sourcePoint"/><mxPoint x="850" y="645" as="targetPoint"/><Array as="points"><mxPoint x="750" y="265"/></Array></mxGeometry></mxCell><mxCell id="QjsJls5_l255g50hNccU-3" value="Absence response" style="ellipse;whiteSpace=wrap;html=1;aspect=fixed;" parent="1" vertex="1"><mxGeometry x="970" y="645" width="80" height="80" as="geometry"/></mxCell><mxCell id="QjsJls5_l255g50hNccU-5" value="Error Response" style="ellipse;whiteSpace=wrap;html=1;aspect=fixed;" parent="1" vertex="1"><mxGeometry x="790" y="645" width="80" height="80" as="geometry"/></mxCell><mxCell id="QjsJls5_l255g50hNccU-6" value="Presence response" style="ellipse;whiteSpace=wrap;html=1;aspect=fixed;" parent="1" vertex="1"><mxGeometry x="610" y="645" width="80" height="80" as="geometry"/></mxCell><mxCell id="QjsJls5_l255g50hNccU-7" value="" style="edgeStyle=elbowEdgeStyle;elbow=vertical;endArrow=classic;html=1;exitX=0.5;exitY=1;exitDx=0;exitDy=0;strokeWidth=1;" parent="1" source="QjsJls5_l255g50hNccU-9" target="QjsJls5_l255g50hNccU-6" edge="1"><mxGeometry width="50" height="50" relative="1" as="geometry"><mxPoint x="850" y="-115" as="sourcePoint"/><mxPoint x="880" y="295" as="targetPoint"/><Array as="points"/></mxGeometry></mxCell><mxCell id="QjsJls5_l255g50hNccU-8" value="" style="edgeStyle=elbowEdgeStyle;elbow=vertical;endArrow=classic;html=1;entryX=0.5;entryY=0;entryDx=0;entryDy=0;jumpStyle=none;jumpSize=6;strokeWidth=1;" parent="1" source="QjsJls5_l255g50hNccU-9" target="QjsJls5_l255g50hNccU-3" edge="1"><mxGeometry width="50" height="50" relative="1" as="geometry"><mxPoint x="650" y="-85" as="sourcePoint"/><mxPoint x="880" y="295" as="targetPoint"/><Array as="points"><mxPoint x="830" y="185"/><mxPoint x="760" y="165"/><mxPoint x="850" y="35"/></Array></mxGeometry></mxCell><mxCell id="QjsJls5_l255g50hNccU-11" value="&lt;font face=&quot;Fira Code&quot; data-font-src=&quot;https://fonts.googleapis.com/css?family=Fira+Code&quot;&gt;….notFoundIf(…)&lt;/font&gt;" style="rounded=0;whiteSpace=wrap;html=1;glass=0;" parent="1" vertex="1"><mxGeometry x="670" y="155" width="140" height="60" as="geometry"/></mxCell><mxCell id="QjsJls5_l255g50hNccU-13" value="&lt;font face=&quot;Fira Code&quot; data-font-src=&quot;https://fonts.googleapis.com/css?family=Fira+Code&quot;&gt;….onError(…)&lt;/font&gt;" style="rounded=0;whiteSpace=wrap;html=1;" parent="1" vertex="1"><mxGeometry x="770" y="475" width="120" height="60" as="geometry"/></mxCell><mxCell id="QjsJls5_l255g50hNccU-14" value="&lt;font face=&quot;Fira Code&quot; data-font-src=&quot;https://fonts.googleapis.com/css?family=Fira+Code&quot;&gt;….onAbsence(…)&lt;/font&gt;" style="rounded=0;whiteSpace=wrap;html=1;" parent="1" vertex="1"><mxGeometry x="950" y="475" width="120" height="60" as="geometry"/></mxCell><mxCell id="QjsJls5_l255g50hNccU-16" value="&lt;font face=&quot;Fira Code&quot;&gt;400 Bad Request&lt;br&gt;+ Errors as JSON&lt;/font&gt;" style="rounded=0;whiteSpace=wrap;html=1;align=center;" parent="1" vertex="1"><mxGeometry x="760" y="715" width="140" height="60" as="geometry"/></mxCell><mxCell id="QjsJls5_l255g50hNccU-17" value="&lt;font face=&quot;Fira Code&quot;&gt;404 Not Found&lt;/font&gt;" style="rounded=0;whiteSpace=wrap;html=1;align=center;" parent="1" vertex="1"><mxGeometry x="940" y="715" width="140" height="60" as="geometry"/></mxCell><mxCell id="QjsJls5_l255g50hNccU-18" value="&lt;font face=&quot;Fira Code&quot; data-font-src=&quot;https://fonts.googleapis.com/css?family=Fira+Code&quot;&gt;….rejectField(…)&lt;/font&gt;" style="rounded=0;whiteSpace=wrap;html=1;" parent="1" vertex="1"><mxGeometry x="670" y="235" width="140" height="60" as="geometry"/></mxCell><mxCell id="QjsJls5_l255g50hNccU-19" value="&lt;font face=&quot;Fira Code&quot; data-font-src=&quot;https://fonts.googleapis.com/css?family=Fira+Code&quot;&gt;….mapIfValid(…)&lt;/font&gt;" style="rounded=0;whiteSpace=wrap;html=1;" parent="1" vertex="1"><mxGeometry x="590" y="315" width="120" height="60" as="geometry"/></mxCell><mxCell id="QjsJls5_l255g50hNccU-21" value="&lt;font face=&quot;Fira Code&quot; data-font-src=&quot;https://fonts.googleapis.com/css?family=Fira+Code&quot;&gt;….map(…)&lt;/font&gt;" style="rounded=0;whiteSpace=wrap;html=1;" parent="1" vertex="1"><mxGeometry x="770" y="315" width="120" height="60" as="geometry"/></mxCell><mxCell id="QjsJls5_l255g50hNccU-22" value="&lt;font face=&quot;Fira Code&quot; data-font-src=&quot;https://fonts.googleapis.com/css?family=Fira+Code&quot;&gt;….peekIfValid(…)&lt;/font&gt;" style="rounded=0;whiteSpace=wrap;html=1;" parent="1" vertex="1"><mxGeometry x="590" y="395" width="120" height="60" as="geometry"/></mxCell><mxCell id="QjsJls5_l255g50hNccU-23" value="&lt;font face=&quot;Fira Code&quot; data-font-src=&quot;https://fonts.googleapis.com/css?family=Fira+Code&quot;&gt;….peek(…)&lt;br&gt;….validate(…)&lt;br&gt;&lt;/font&gt;" style="rounded=0;whiteSpace=wrap;html=1;" parent="1" vertex="1"><mxGeometry x="770" y="395" width="120" height="60" as="geometry"/></mxCell><mxCell id="QjsJls5_l255g50hNccU-24" value="&lt;font face=&quot;Fira Code&quot; data-font-src=&quot;https://fonts.googleapis.com/css?family=Fira+Code&quot;&gt;….concludeIfValid(…)&lt;/font&gt;" style="rounded=0;whiteSpace=wrap;html=1;" parent="1" vertex="1"><mxGeometry x="565.5" y="555" width="169" height="60" as="geometry"/></mxCell><mxCell id="QjsJls5_l255g50hNccU-9" value="&lt;font face=&quot;Fira Code&quot; data-font-src=&quot;https://fonts.googleapis.com/css?family=Fira+Code&quot;&gt;MappedPayloads.of(payload, errors)&lt;/font&gt;" style="rounded=0;whiteSpace=wrap;html=1;" parent="1" vertex="1"><mxGeometry x="510" y="55" width="280" height="80" as="geometry"/></mxCell><mxCell id="QjsJls5_l255g50hNccU-27" value="Create the mapped payload instance" style="text;html=1;strokeColor=none;fillColor=none;align=right;verticalAlign=middle;whiteSpace=wrap;rounded=0;" parent="1" vertex="1"><mxGeometry x="250" y="85" width="210" height="20" as="geometry"/></mxCell><mxCell id="QjsJls5_l255g50hNccU-28" value="Define under which circumstances we want to end up with a 404." style="text;html=1;strokeColor=none;fillColor=none;align=right;verticalAlign=middle;whiteSpace=wrap;rounded=0;" parent="1" vertex="1"><mxGeometry x="260" y="175" width="200" height="20" as="geometry"/></mxCell><mxCell id="QjsJls5_l255g50hNccU-29" value="Potentially reject fields. Overloads to easily do that conditionally exist." style="text;html=1;strokeColor=none;fillColor=none;align=right;verticalAlign=middle;whiteSpace=wrap;rounded=0;" parent="1" vertex="1"><mxGeometry x="260" y="255" width="200" height="20" as="geometry"/></mxCell><mxCell id="QjsJls5_l255g50hNccU-30" value="Map the payload if valid or use &lt;font face=&quot;Fira Code&quot; data-font-src=&quot;https://fonts.googleapis.com/css?family=Fira+Code&quot;&gt;map(…)&lt;/font&gt; to also invoke the mapping if errors have been recorded already." style="text;html=1;strokeColor=none;fillColor=none;align=right;verticalAlign=middle;whiteSpace=wrap;rounded=0;" parent="1" vertex="1"><mxGeometry x="260" y="335" width="200" height="20" as="geometry"/></mxCell><mxCell id="QjsJls5_l255g50hNccU-33" value="Peek at either the payload or the &lt;font face=&quot;Fira Code&quot; data-font-src=&quot;https://fonts.googleapis.com/css?family=Fira+Code&quot;&gt;Errors&lt;/font&gt; instance." style="text;html=1;strokeColor=none;fillColor=none;align=right;verticalAlign=middle;whiteSpace=wrap;rounded=0;" parent="1" vertex="1"><mxGeometry x="260" y="415" width="200" height="20" as="geometry"/></mxCell><mxCell id="QjsJls5_l255g50hNccU-34" value="Define what to return in case a valid response is supposed to be rendered. In case of payload absence or recorded errors the corresponding handlers will be triggered instead." style="text;html=1;strokeColor=none;fillColor=none;align=right;verticalAlign=middle;whiteSpace=wrap;rounded=0;" parent="1" vertex="1"><mxGeometry x="260" y="575" width="200" height="20" as="geometry"/></mxCell><mxCell id="QjsJls5_l255g50hNccU-35" value="Optionally register custom error or absence handlers." style="text;html=1;strokeColor=none;fillColor=none;align=right;verticalAlign=middle;whiteSpace=wrap;rounded=0;" parent="1" vertex="1"><mxGeometry x="260" y="495" width="200" height="20" as="geometry"/></mxCell><mxCell id="2" value="" style="endArrow=none;dashed=1;html=1;dashPattern=1 3;strokeWidth=1;" parent="1" edge="1"><mxGeometry width="50" height="50" relative="1" as="geometry"><mxPoint x="470" y="504.5" as="sourcePoint"/><mxPoint x="750" y="504" as="targetPoint"/></mxGeometry></mxCell><mxCell id="3" value="" style="endArrow=none;dashed=1;html=1;dashPattern=1 3;strokeWidth=1;" parent="1" edge="1"><mxGeometry width="50" height="50" relative="1" as="geometry"><mxPoint x="470" y="585" as="sourcePoint"/><mxPoint x="550" y="585" as="targetPoint"/></mxGeometry></mxCell><mxCell id="4" value="" style="endArrow=none;dashed=1;html=1;dashPattern=1 3;strokeWidth=1;" parent="1" edge="1"><mxGeometry width="50" height="50" relative="1" as="geometry"><mxPoint x="470" y="424.5" as="sourcePoint"/><mxPoint x="570" y="424.5" as="targetPoint"/></mxGeometry></mxCell><mxCell id="5" value="" style="endArrow=none;dashed=1;html=1;dashPattern=1 3;strokeWidth=1;" parent="1" edge="1"><mxGeometry width="50" height="50" relative="1" as="geometry"><mxPoint x="470" y="344.5" as="sourcePoint"/><mxPoint x="570" y="344.5" as="targetPoint"/></mxGeometry></mxCell><mxCell id="6" value="" style="endArrow=none;dashed=1;html=1;dashPattern=1 3;strokeWidth=1;" parent="1" edge="1"><mxGeometry width="50" height="50" relative="1" as="geometry"><mxPoint x="470" y="264.5" as="sourcePoint"/><mxPoint x="630" y="265" as="targetPoint"/></mxGeometry></mxCell><mxCell id="7" value="" style="endArrow=none;dashed=1;html=1;dashPattern=1 3;strokeWidth=1;" parent="1" edge="1"><mxGeometry width="50" height="50" relative="1" as="geometry"><mxPoint x="470" y="184.5" as="sourcePoint"/><mxPoint x="630" y="185" as="targetPoint"/></mxGeometry></mxCell><mxCell id="8" value="" style="endArrow=none;dashed=1;html=1;dashPattern=1 3;strokeWidth=1;" parent="1" edge="1"><mxGeometry width="50" height="50" relative="1" as="geometry"><mxPoint x="470" y="94.66" as="sourcePoint"/><mxPoint x="490" y="95" as="targetPoint"/></mxGeometry></mxCell></root></mxGraphModel></diagram></mxfile>